<svg width="64" height="64" viewBox="0 0 64 64" fill="none" xmlns="http://www.w3.org/2000/svg">
<g id="&#240;&#159;&#166;&#134; icon &#34;team group thin&#34;">
<path id="Vector" d="M31.7471 6.1986e-05C35.5885 6.1986e-05 38.7026 3.11409 38.7026 6.95561C38.7026 10.7971 35.5883 13.911 31.747 13.911C27.9057 13.911 24.7915 10.7969 24.7915 6.95555C24.7964 3.11614 27.9076 0.0049616 31.7465 0H31.747L31.7471 6.1986e-05ZM31.7471 11.0249C33.9946 11.0249 35.8165 9.20303 35.8165 6.95555C35.8165 4.70807 33.9946 2.88617 31.7471 2.88617C29.4996 2.88617 27.6777 4.70807 27.6777 6.95555C27.681 9.20167 29.501 11.0216 31.7468 11.0249H31.7471ZM41.4443 20.7222H38.5582C38.5582 16.9605 35.5087 13.911 31.7471 13.911C27.9854 13.911 24.9359 16.9605 24.9359 20.7223H22.0498C22.0498 15.3666 26.3914 11.025 31.7471 11.025C37.1028 11.025 41.4443 15.3666 41.4443 20.7222ZM53.7968 33.0458C57.6382 33.0458 60.7524 36.1599 60.7524 40.0014C60.7524 43.8429 57.6382 46.9568 53.7968 46.9568C49.9554 46.9568 46.8413 43.8428 46.8413 40.0013C46.8462 36.1619 49.9574 33.0507 53.7963 33.0458H53.7968ZM53.7968 44.0708C56.0443 44.0708 57.8662 42.2489 57.8662 40.0014C57.8662 37.754 56.0443 35.9321 53.7968 35.9321C51.5493 35.9321 49.7274 37.754 49.7274 40.0014C49.7307 42.2476 51.5507 44.0675 53.7966 44.0708L53.7968 44.0708ZM44.0707 53.8027C44.0707 48.4391 48.4188 44.091 53.7824 44.091C59.146 44.091 63.4941 48.4391 63.4941 53.8027H60.608C60.608 50.033 57.5521 46.9771 53.7824 46.9771C50.0127 46.9771 46.9568 50.0331 46.9568 53.8028L44.0707 53.8027ZM9.69733 33.0458C13.5387 33.0458 16.6528 36.16 16.6528 40.0014C16.6528 43.8428 13.5387 46.9569 9.69721 46.9569C5.85587 46.9569 2.74178 43.8428 2.74178 40.0014C2.74674 36.162 5.85786 33.0508 9.69671 33.0458H9.69733ZM9.69733 44.0708C11.9448 44.0708 13.7667 42.249 13.7667 40.0015C13.7667 37.754 11.9448 35.9321 9.69733 35.9321C7.44985 35.9321 5.62795 37.754 5.62795 40.0015C5.63124 42.2476 7.45121 44.0675 9.69708 44.0709L9.69733 44.0708ZM19.4234 53.8027H16.5373C16.5373 50.033 13.4814 46.9771 9.71172 46.9771C5.94202 46.9771 2.8861 50.033 2.8861 53.8027H0C0 48.4391 4.3481 44.091 9.71172 44.091C15.0753 44.091 19.4234 48.4391 19.4234 53.8027ZM5.68271 30.0155L2.79661 29.8251C3.48714 19.7193 9.26778 11.1033 17.5712 6.45926L17.7177 6.38397L19.1117 8.91222C11.4919 13.1463 6.28176 20.9115 5.68681 29.9375L5.68265 30.0154L5.68271 30.0155ZM57.8114 30.0155C57.216 20.9088 52.0062 13.1399 44.5174 8.9712L44.3853 8.9036L45.7792 6.37541C54.2292 11.0974 60.0083 19.7169 60.6897 29.7359L60.6946 29.8249L57.8114 30.0155ZM31.7471 63.4941C27.7908 63.4909 24.0219 62.6935 20.5894 61.2529L20.7798 61.3238L21.8737 58.6542C24.7916 59.8902 28.1847 60.6084 31.7456 60.6084C35.3066 60.6084 38.6997 59.8902 41.7881 58.5906L41.6175 58.6543L42.7114 61.3239C39.4704 62.6933 35.7023 63.4907 31.7485 63.4943H31.7471L31.7471 63.4941Z" fill="white"/>
</g>
</svg>
