<svg width="59" height="54" viewBox="0 0 59 54" fill="none" xmlns="http://www.w3.org/2000/svg">
<g id="&#240;&#159;&#166;&#134; icon &#34;wallet money&#34;">
<g id="Group">
<path id="Vector" d="M16.0097 53.9998C9.58371 53.9998 4.31885 49.3289 4.31885 43.5779V38.0699C4.31885 36.9629 5.23684 36.0449 6.34384 36.0449C7.45083 36.0449 8.36883 36.9629 8.36883 38.0699C8.36883 41.4449 11.6357 43.9829 16.0097 43.9829C20.3837 43.9829 23.6507 41.4449 23.6507 38.0699C23.6507 36.9629 24.5686 36.0449 25.6756 36.0449C26.7826 36.0449 27.7006 36.9629 27.7006 38.0699V43.5779C27.7006 49.3289 22.4627 53.9998 16.0097 53.9998ZM9.07069 46.2239C10.2587 48.4379 12.9317 49.9499 16.0097 49.9499C19.0877 49.9499 21.7607 48.4109 22.9487 46.2239C21.0317 47.3849 18.6557 48.0599 16.0097 48.0599C13.3637 48.0599 10.9877 47.3849 9.07069 46.2239Z" fill="white"/>
<path id="Vector_2" d="M16.0097 40.6345C11.5817 40.6345 7.6128 38.6095 5.64181 35.3965C4.77782 33.9925 4.31885 32.3455 4.31885 30.6715C4.31885 27.8365 5.56081 25.1906 7.8288 23.2196C12.2028 19.3856 19.7357 19.3858 24.1366 23.1928C26.4046 25.1908 27.6736 27.8365 27.6736 30.6715C27.6736 32.3455 27.2146 33.9925 26.3506 35.3965C24.4066 38.6095 20.4377 40.6345 16.0097 40.6345ZM16.0097 24.2996C13.9037 24.2996 11.9598 25.0016 10.5018 26.2705C9.12477 27.4585 8.36883 29.0245 8.36883 30.6715C8.36883 31.6165 8.61172 32.4808 9.09772 33.2908C10.3397 35.3428 12.9857 36.6115 16.0097 36.6115C19.0337 36.6115 21.6796 35.3428 22.8946 33.3178C23.3806 32.5348 23.6237 31.6435 23.6237 30.6985C23.6237 29.0515 22.8677 27.4855 21.4907 26.2705C20.0597 25.0016 18.1157 24.2996 16.0097 24.2996Z" fill="white"/>
<path id="Vector_3" d="M16.0097 48.0599C9.34071 48.0599 4.31885 43.7669 4.31885 38.0969V30.6719C4.31885 24.921 9.55671 20.25 16.0097 20.25C19.0607 20.25 21.9767 21.303 24.1636 23.193C26.4316 25.191 27.7006 27.837 27.7006 30.6719V38.0969C27.7006 43.7669 22.6786 48.0599 16.0097 48.0599ZM16.0097 24.3C11.7977 24.3 8.36883 27.162 8.36883 30.6719V38.0969C8.36883 41.4719 11.6357 44.0099 16.0097 44.0099C20.3837 44.0099 23.6507 41.4719 23.6507 38.0969V30.6719C23.6507 29.025 22.8948 27.459 21.5178 26.244C20.0598 25.002 18.1157 24.3 16.0097 24.3Z" fill="white"/>
<path id="Vector_4" d="M48.0589 32.5355C43.9819 32.5355 40.5259 29.5115 40.2019 25.6235C39.9859 23.3825 40.7959 21.1955 42.4159 19.6025C43.7659 18.1985 45.6829 17.4155 47.7079 17.4155H53.3508C56.0238 17.4965 58.0758 19.6025 58.0758 22.1945V27.7565C58.0758 30.3485 56.0238 32.4545 53.4318 32.5355H48.0589ZM53.2698 21.4655H47.7349C46.7899 21.4655 45.9259 21.8165 45.3049 22.4645C44.5219 23.2205 44.1439 24.2465 44.2519 25.2725C44.3869 27.0545 46.1149 28.4855 48.0589 28.4855H53.3508C53.7018 28.4855 54.0258 28.1615 54.0258 27.7565V22.1945C54.0258 21.7895 53.7018 21.4925 53.2698 21.4655Z" fill="white"/>
<path id="Vector_5" d="M39.8517 49.9498H33.1018C31.9948 49.9498 31.0768 49.0318 31.0768 47.9248C31.0768 46.8178 31.9948 45.8998 33.1018 45.8998H39.8517C46.8177 45.8998 51.3267 41.3908 51.3267 34.4248V32.5348H48.0597C43.9827 32.5348 40.5267 29.5109 40.2027 25.6229C39.9867 23.3819 40.797 21.1949 42.417 19.6019C43.767 18.1979 45.6837 17.4149 47.7087 17.4149H51.2997V15.5249C51.2997 9.20695 47.601 4.85992 41.607 4.15793C40.959 4.04993 40.3917 4.04998 39.8247 4.04998H15.5249C14.8769 4.04998 14.2559 4.10395 13.6349 4.18495C7.69493 4.94095 4.04998 9.26095 4.04998 15.5249V20.9249C4.04998 22.0319 3.13198 22.9499 2.02499 22.9499C0.917996 22.9499 0 22.0319 0 20.9249V15.5249C0 7.20896 5.13008 1.18802 13.095 0.189026C13.824 0.0810265 14.6609 0 15.5249 0H39.8247C40.4727 0 41.3097 0.0269997 42.1737 0.161999C50.1387 1.07999 55.3496 7.12797 55.3496 15.5249V19.4399C55.3496 20.5469 54.4317 21.4649 53.3247 21.4649H47.7087C46.7637 21.4649 45.9 21.8159 45.279 22.4639C44.496 23.2199 44.1177 24.2459 44.2257 25.2719C44.3607 27.0539 46.089 28.4849 48.033 28.4849H53.3517C54.4587 28.4849 55.3767 29.4029 55.3767 30.5099V34.4248C55.3767 43.7128 49.1397 49.9498 39.8517 49.9498Z" fill="white"/>
</g>
</g>
</svg>
